<svg xmlns="http://www.w3.org/2000/svg" viewBox="0 0 64 64" role="img" aria-labelledby="title desc">
  <title id="title">BusinessOS favicon</title>
  <desc id="desc">Monograma OS en azul para BusinessOS</desc>
  <rect width="64" height="64" rx="14" fill="#ffffff" />
  <circle cx="19.5" cy="32" r="10.5" fill="none" stroke="#0f9ada" stroke-width="6.5" />
  <path
    fill="#11a7ea"
    d="M43.1 15.7c-8.4 0-13.3 3.8-13.3 9.7 0 5 2.9 7.8 10 9.2l2.6.6c3.1.6 4.5 1.7 4.5 3.8 0 2.5-2.4 4.3-6.2 4.3-3.4 0-6.4-1.4-8.6-3.8L27.8 44c3.3 3.4 8 5.3 13.1 5.3 8.2 0 13.9-4.4 13.9-10.8 0-5.5-3.4-8.7-10.3-10.1l-2.7-.5c-2.4-.5-3.6-1.3-3.6-2.8 0-2 2-3.6 5.1-3.6 2.8 0 5.2 1 7 2.8l4-4.8c-2.8-2.6-6.5-3.8-11.2-3.8z"
  />
</svg>
